<svg id="visual" viewBox="0 0 960 130" width="960" height="130" xmlns="http://www.w3.org/2000/svg" xmlns:xlink="http://www.w3.org/1999/xlink" version="1.1"><rect x="0" y="0" width="960" height="130" fill="#0d0d0d"></rect><path d="M0 96L9.3 97.3C18.7 98.7 37.3 101.3 56.2 101.3C75 101.3 94 98.7 112.8 98.5C131.7 98.3 150.3 100.7 169.2 101C188 101.3 207 99.7 225.8 96.5C244.7 93.3 263.3 88.7 282.2 88C301 87.3 320 90.7 338.8 93.3C357.7 96 376.3 98 395.2 99C414 100 433 100 451.8 96.3C470.7 92.7 489.3 85.3 508.2 86.8C527 88.3 546 98.7 564.8 103.7C583.7 108.7 602.3 108.3 621.2 106.5C640 104.7 659 101.3 677.8 96.5C696.7 91.7 715.3 85.3 734.2 87.2C753 89 772 99 790.8 100.8C809.7 102.7 828.3 96.3 847.2 91.8C866 87.3 885 84.7 903.8 85C922.7 85.3 941.3 88.7 950.7 90.3L960 92L960 131L950.7 131C941.3 131 922.7 131 903.8 131C885 131 866 131 847.2 131C828.3 131 809.7 131 790.8 131C772 131 753 131 734.2 131C715.3 131 696.7 131 677.8 131C659 131 640 131 621.2 131C602.3 131 583.7 131 564.8 131C546 131 527 131 508.2 131C489.3 131 470.7 131 451.8 131C433 131 414 131 395.2 131C376.3 131 357.7 131 338.8 131C320 131 301 131 282.2 131C263.3 131 244.7 131 225.8 131C207 131 188 131 169.2 131C150.3 131 131.7 131 112.8 131C94 131 75 131 56.2 131C37.3 131 18.7 131 9.3 131L0 131Z" fill="#000" stroke-linecap="round" stroke-linejoin="miter"></path></svg>