<svg id="visual" viewBox="0 0 960 130" width="960" height="130" xmlns="http://www.w3.org/2000/svg" xmlns:xlink="http://www.w3.org/1999/xlink" version="1.1"><rect x="0" y="0" width="960" height="130" fill="#2a2a2a"></rect><path d="M0 89L11.5 92.5C23 96 46 103 68.8 101.3C91.7 99.7 114.3 89.3 137.2 84C160 78.7 183 78.3 205.8 78C228.7 77.7 251.3 77.3 274.2 84C297 90.7 320 104.3 342.8 105.3C365.7 106.3 388.3 94.7 411.2 90.5C434 86.3 457 89.7 480 88.8C503 88 526 83 548.8 82.8C571.7 82.7 594.3 87.3 617.2 92.7C640 98 663 104 685.8 108.2C708.7 112.3 731.3 114.7 754.2 109.3C777 104 800 91 822.8 84.8C845.7 78.7 868.3 79.3 891.2 83.5C914 87.7 937 95.3 948.5 99.2L960 103L960 131L948.5 131C937 131 914 131 891.2 131C868.3 131 845.7 131 822.8 131C800 131 777 131 754.2 131C731.3 131 708.7 131 685.8 131C663 131 640 131 617.2 131C594.3 131 571.7 131 548.8 131C526 131 503 131 480 131C457 131 434 131 411.2 131C388.3 131 365.7 131 342.8 131C320 131 297 131 274.2 131C251.3 131 228.7 131 205.8 131C183 131 160 131 137.2 131C114.3 131 91.7 131 68.8 131C46 131 23 131 11.5 131L0 131Z" fill="#0d0d0d" stroke-linecap="round" stroke-linejoin="miter"></path></svg>