<svg id="visual" viewBox="0 0 900 130" width="900" height="130" xmlns="http://www.w3.org/2000/svg" xmlns:xlink="http://www.w3.org/1999/xlink" version="1.1"><rect x="0" y="0" width="900" height="130" fill="#01b1f0"></rect><path d="M0 79L12.5 77.8C25 76.7 50 74.3 75 76.3C100 78.3 125 84.7 150 89.3C175 94 200 97 225 100C250 103 275 106 300 105C325 104 350 99 375 93.2C400 87.3 425 80.7 450 76.8C475 73 500 72 525 73.3C550 74.7 575 78.3 600 81.3C625 84.3 650 86.7 675 90.3C700 94 725 99 750 101.8C775 104.7 800 105.3 825 101.8C850 98.3 875 90.7 887.5 86.8L900 83L900 131L887.5 131C875 131 850 131 825 131C800 131 775 131 750 131C725 131 700 131 675 131C650 131 625 131 600 131C575 131 550 131 525 131C500 131 475 131 450 131C425 131 400 131 375 131C350 131 325 131 300 131C275 131 250 131 225 131C200 131 175 131 150 131C125 131 100 131 75 131C50 131 25 131 12.5 131L0 131Z" fill="#0b4ea3" stroke-linecap="round" stroke-linejoin="miter"></path></svg>