<svg id="visual" viewBox="0 0 960 130" width="960" height="130" xmlns="http://www.w3.org/2000/svg" xmlns:xlink="http://www.w3.org/1999/xlink" version="1.1"><rect x="0" y="0" width="960" height="130" fill="#0b4ea3"></rect><path d="M0 77L11.5 80.5C23 84 46 91 68.8 97.3C91.7 103.7 114.3 109.3 137.2 108.7C160 108 183 101 205.8 100.7C228.7 100.3 251.3 106.7 274.2 104.2C297 101.7 320 90.3 342.8 90C365.7 89.7 388.3 100.3 411.2 106.3C434 112.3 457 113.7 480 113.5C503 113.3 526 111.7 548.8 105.2C571.7 98.7 594.3 87.3 617.2 83C640 78.7 663 81.3 685.8 87.7C708.7 94 731.3 104 754.2 106.5C777 109 800 104 822.8 97.5C845.7 91 868.3 83 891.2 80.8C914 78.7 937 82.3 948.5 84.2L960 86L960 131L948.5 131C937 131 914 131 891.2 131C868.3 131 845.7 131 822.8 131C800 131 777 131 754.2 131C731.3 131 708.7 131 685.8 131C663 131 640 131 617.2 131C594.3 131 571.7 131 548.8 131C526 131 503 131 480 131C457 131 434 131 411.2 131C388.3 131 365.7 131 342.8 131C320 131 297 131 274.2 131C251.3 131 228.7 131 205.8 131C183 131 160 131 137.2 131C114.3 131 91.7 131 68.8 131C46 131 23 131 11.5 131L0 131Z" fill="#2a2a2a" stroke-linecap="round" stroke-linejoin="miter"></path></svg>