<svg id="visual" viewBox="0 0 960 130" width="960" height="130" xmlns="http://www.w3.org/2000/svg" xmlns:xlink="http://www.w3.org/1999/xlink" version="1.1"><rect x="0" y="0" width="960" height="130" fill="#f5f5f5"></rect><path d="M0 114L17.8 107.7C35.7 101.3 71.3 88.7 106.8 87.3C142.3 86 177.7 96 213.2 92.7C248.7 89.3 284.3 72.7 320 73.7C355.7 74.7 391.3 93.3 426.8 99.2C462.3 105 497.7 98 533.2 89.7C568.7 81.3 604.3 71.7 640 68.3C675.7 65 711.3 68 746.8 76.5C782.3 85 817.7 99 853.2 98.7C888.7 98.3 924.3 83.7 942.2 76.3L960 69L960 131L942.2 131C924.3 131 888.7 131 853.2 131C817.7 131 782.3 131 746.8 131C711.3 131 675.7 131 640 131C604.3 131 568.7 131 533.2 131C497.7 131 462.3 131 426.8 131C391.3 131 355.7 131 320 131C284.3 131 248.7 131 213.2 131C177.7 131 142.3 131 106.8 131C71.3 131 35.7 131 17.8 131L0 131Z" fill="#01b1f0" stroke-linecap="round" stroke-linejoin="miter"></path></svg>