<svg id="visual" viewBox="0 0 960 130" width="960" height="130" xmlns="http://www.w3.org/2000/svg" xmlns:xlink="http://www.w3.org/1999/xlink" version="1.1"><rect x="0" y="0" width="960" height="130" fill="#f5f5f5"></rect><path d="M0 66L17.8 67.8C35.7 69.7 71.3 73.3 106.8 66.7C142.3 60 177.7 43 213.2 37C248.7 31 284.3 36 320 44.5C355.7 53 391.3 65 426.8 71.2C462.3 77.3 497.7 77.7 533.2 72.2C568.7 66.7 604.3 55.3 640 55.2C675.7 55 711.3 66 746.8 65.3C782.3 64.7 817.7 52.3 853.2 46.5C888.7 40.7 924.3 41.3 942.2 41.7L960 42" fill="none" stroke-linecap="round" stroke-linejoin="miter" stroke="#01b1f0" stroke-width="40"></path></svg>